<svg width="14.000000" height="26.000000" viewBox="0 0 14 26" fill="none" xmlns="http://www.w3.org/2000/svg" xmlns:xlink="http://www.w3.org/1999/xlink">
	<desc>
			Created with Pixso.
	</desc>
	<defs/>
	<path id="Vector" d="M8.14 16.87L8.14 11.22C8.14 10.91 8.02 10.61 7.8 10.39C7.58 10.16 7.29 10.04 6.98 10.04C6.67 10.04 6.37 10.16 6.16 10.39C5.94 10.61 5.82 10.91 5.82 11.22L5.82 16.87C5.46 17.08 5.17 17.37 4.97 17.73C4.76 18.09 4.65 18.49 4.65 18.9C4.65 19.53 4.9 20.13 5.33 20.58C5.77 21.02 6.36 21.27 6.98 21.27C7.6 21.27 8.19 21.02 8.63 20.58C9.06 20.13 9.31 19.53 9.31 18.9C9.3 18.49 9.2 18.09 8.99 17.73C8.79 17.37 8.5 17.08 8.14 16.87ZM12.22 14.18L12.22 5.31C12.22 3.9 11.66 2.55 10.68 1.55C9.7 0.56 8.37 0 6.98 0C5.59 0 4.26 0.56 3.28 1.55C2.29 2.55 1.74 3.9 1.74 5.31L1.74 14.18C0.94 15.1 0.39 16.23 0.14 17.43C-0.11 18.64 -0.04 19.9 0.34 21.07C0.72 22.24 1.39 23.3 2.29 24.13C3.19 24.95 4.29 25.53 5.48 25.79C5.97 25.91 6.47 25.98 6.98 25.99C8.33 26 9.65 25.61 10.79 24.87C11.93 24.13 12.83 23.06 13.38 21.81C13.93 20.56 14.12 19.18 13.91 17.82C13.71 16.46 13.12 15.2 12.22 14.18ZM9.89 22.53C8.96 23.37 7.75 23.79 6.51 23.72C5.28 23.64 4.12 23.07 3.3 22.13C2.48 21.19 2.06 19.96 2.14 18.7C2.21 17.45 2.77 16.28 3.7 15.44C3.81 15.33 3.89 15.2 3.95 15.06C4.01 14.91 4.05 14.76 4.05 14.6L4.05 5.31C4.05 4.53 4.35 3.78 4.9 3.22C5.44 2.67 6.18 2.36 6.96 2.36C7.73 2.36 8.47 2.67 9.01 3.22C9.56 3.78 9.87 4.53 9.87 5.31L9.87 14.7C9.87 14.85 9.9 15.01 9.96 15.15C10.02 15.3 10.1 15.43 10.22 15.54C10.69 16 11.06 16.57 11.31 17.19C11.55 17.82 11.66 18.49 11.63 19.16C11.6 19.83 11.43 20.48 11.13 21.08C10.83 21.68 10.41 22.21 9.89 22.63L9.89 22.53Z" fill="#DFA1A1" fill-opacity="1.000000" fill-rule="nonzero"/>
</svg>
