<svg width="22.000000" height="22.000000" viewBox="0 0 22 22" fill="none" xmlns="http://www.w3.org/2000/svg" xmlns:xlink="http://www.w3.org/1999/xlink">
	<desc>
			Created with Pixso.
	</desc>
	<defs/>
	<path id="outline" d="M7.48 4.75C7.76 4.72 8.04 4.71 8.33 4.71C12.15 4.71 15.37 7.37 16.35 11.01C16.43 11 16.51 11 16.59 11C16.56 11 16.53 11 16.5 11L16.47 11L16.47 11L17.67 11L17.72 11L17.72 10.99C19.22 10.97 20.42 9.75 20.42 8.25C20.42 6.73 19.19 5.5 17.67 5.5C17.16 5.5 16.69 5.63 16.28 5.88C16.28 5.44 16.21 5.01 16.09 4.61C15.47 2.84 13.79 1.57 11.81 1.57C9.77 1.57 8.05 2.91 7.48 4.75ZM19.78 12.02C21.12 13.02 22 14.65 22 16.5C22 19.53 19.62 22 16.69 22C16.63 22 16.56 21.99 16.5 21.99L16.5 22L8.45 22L8.45 21.99C8.41 21.99 8.37 22 8.33 22C3.73 22 0 18.13 0 13.35C0 9.5 2.43 6.23 5.79 5.12C6.25 2.21 8.77 0 11.81 0C14.41 0 16.64 1.63 17.51 3.93C17.56 3.92 17.62 3.92 17.67 3.92C20.06 3.92 22 5.86 22 8.25C22 9.87 21.1 11.28 19.78 12.02ZM16.5 20.42L8.45 20.42L8.36 20.42L8.36 20.42L8.33 20.42C4.65 20.42 1.57 17.31 1.57 13.35C1.57 9.39 4.65 6.28 8.33 6.28C11.45 6.28 14.15 8.52 14.89 11.62L14.89 11.62C15 12.05 15.06 12.49 15.09 12.95C15.58 12.7 16.12 12.57 16.69 12.57C18.7 12.57 20.42 14.27 20.42 16.5C20.42 18.7 18.72 20.4 16.73 20.42L16.73 20.42L16.5 20.42Z" fill="#FFFFFF" fill-opacity="1.000000" fill-rule="evenodd"/>
</svg>
