<svg width="18.000000" height="24.000000" viewBox="0 0 18 24" fill="none" xmlns="http://www.w3.org/2000/svg" xmlns:xlink="http://www.w3.org/1999/xlink">
	<desc>
			Created with Pixso.
	</desc>
	<defs/>
	<path id="outline" d="M16 16.36C16 19.18 13.18 22 9 22C4.81 22 2 19.18 2 16.36C2 13.44 3.9 9.8 6.13 6.63C7.14 5.2 8.15 3.95 8.94 3.03C9.75 4.02 10.8 5.37 11.84 6.9C12.93 8.49 13.99 10.23 14.77 11.93C15.57 13.66 16 15.18 16 16.36ZM0 16.36C0 10.92 5.13 4.37 7.64 1.48C8.46 0.54 9 0 9 0C9 0 9.51 0.57 10.3 1.52C12.79 4.56 18 11.48 18 16.36C18 20.58 13.97 24 9 24C4.02 24 0 20.58 0 16.36ZM4.49 13L6.64 13C6.24 13.92 6 14.8 6 15.54C6 16.69 7.11 18 9 18L9 20C6.23 20 4 18 4 15.54C4 14.72 4.19 13.86 4.49 13Z" fill="#FFFFFF" fill-opacity="1.000000" fill-rule="evenodd"/>
</svg>
