<svg width="24.000000" height="19.000090" viewBox="0 0 24 19.0001" fill="none" xmlns="http://www.w3.org/2000/svg" xmlns:xlink="http://www.w3.org/1999/xlink">
	<desc>
			Created with Pixso.
	</desc>
	<defs/>
	<path id="outline" d="M10 3.99L10 3.98L4.33 3.98L9.76 2.02L9.76 2.02C9.87 1.99 9.98 1.98 10.08 1.99C10.1 1.99 10.11 1.99 10.12 2L10.13 2C10.27 2.01 10.41 2.06 10.54 2.14L10.54 2.14C10.66 2.22 10.77 2.33 10.85 2.45L10.85 2.45C10.93 2.58 10.98 2.72 11 2.86L11 2.86C11.02 3.01 11 3.16 10.96 3.3L10.96 3.3C10.91 3.44 10.83 3.57 10.73 3.68L10.73 3.68C10.63 3.79 10.51 3.87 10.37 3.92L10.37 3.92C10.35 3.93 10.34 3.93 10.33 3.94C10.22 3.97 10.11 3.99 10 3.99ZM0 3.42L0 5.98L9.97 5.98C10.35 5.99 10.73 5.92 11.09 5.78L11.09 5.78C11.36 5.68 11.61 5.54 11.84 5.36C11.96 5.27 12.07 5.16 12.18 5.05L12.18 5.05C12.48 4.73 12.71 4.35 12.85 3.92L12.85 3.92C12.99 3.5 13.03 3.05 12.98 2.61L12.98 2.61C12.92 2.17 12.77 1.75 12.53 1.38L12.53 1.38C12.29 1 11.97 0.69 11.6 0.45L11.6 0.45C11.47 0.37 11.33 0.3 11.19 0.24C10.93 0.12 10.64 0.05 10.36 0.02L10.36 0.02C9.93 -0.03 9.5 0.01 9.09 0.14L9.08 0.14L9.05 0.15L9.05 0.15L9.05 0.15L9.05 0.15L0 3.42ZM0 11.99L0 14.05L13.2 18.75L13.2 18.75C13.68 18.94 14.19 19.02 14.71 18.99C14.9 18.98 15.1 18.95 15.29 18.9C15.6 18.83 15.89 18.72 16.17 18.57C16.62 18.32 17.02 17.98 17.32 17.56C17.62 17.15 17.83 16.67 17.93 16.17C18.03 15.66 18.02 15.14 17.89 14.64C17.76 14.14 17.53 13.68 17.2 13.28C17 13.03 16.77 12.82 16.51 12.64C16.35 12.52 16.18 12.42 16 12.34C15.54 12.12 15.03 12 14.52 12L14.52 11.99L0 11.99ZM14.51 13.99L5.81 13.99L13.98 16.9L13.98 16.9C14.17 16.97 14.38 17 14.59 16.99C14.81 16.98 15.02 16.92 15.21 16.81C15.41 16.71 15.58 16.56 15.71 16.38C15.84 16.2 15.93 16 15.97 15.78C16.01 15.57 16 15.34 15.95 15.13C15.9 14.92 15.8 14.72 15.66 14.55C15.52 14.38 15.34 14.24 15.14 14.14C14.94 14.05 14.73 14 14.51 14L14.51 14L14.51 14L14.51 13.99ZM19.01 4.24L19.01 4.24L18.03 2.5L18.03 2.5L18.03 2.5C18.56 2.2 19.16 2.02 19.77 1.99C19.86 1.98 19.94 1.98 20.03 1.98C20.55 1.99 21.07 2.09 21.55 2.3C22.12 2.54 22.62 2.9 23.02 3.36C23.42 3.83 23.71 4.38 23.86 4.97C24.02 5.56 24.04 6.18 23.91 6.78C23.79 7.38 23.53 7.95 23.16 8.43C22.84 8.84 22.44 9.19 21.99 9.45C21.91 9.5 21.84 9.54 21.76 9.58C21.21 9.85 20.6 9.99 19.99 9.99L19.99 9.98L0 9.98L0 7.98L19.99 7.98L19.99 7.98C20.3 7.98 20.6 7.91 20.87 7.78C21.15 7.64 21.39 7.45 21.58 7.21C21.76 6.96 21.89 6.68 21.95 6.38C22.01 6.08 22.01 5.77 21.93 5.48C21.85 5.18 21.71 4.91 21.51 4.68C21.31 4.44 21.05 4.26 20.77 4.14C20.49 4.02 20.19 3.97 19.88 3.99C19.58 4.01 19.28 4.09 19.01 4.24Z" fill="#FFFFFF" fill-opacity="1.000000" fill-rule="evenodd"/>
</svg>
